<?xml version="1.0" encoding="UTF-8"?>
<svg width="127px" height="125px" viewBox="0 0 127 125" version="1.1" xmlns="http://www.w3.org/2000/svg" xmlns:xlink="http://www.w3.org/1999/xlink">
    <!-- Generator: Sketch 63.1 (92452) - https://sketch.com -->
    <title>vrplogo</title>
    <desc>Created with Sketch.</desc>
    <g id="Page-1" stroke="none" stroke-width="1" fill="none" fill-rule="evenodd">
        <g id="main" transform="translate(-370.000000, -278.000000)" fill="#000000" fill-rule="nonzero">
            <g id="Текст" transform="translate(370.000000, 278.000000)">
                <g id="vrplogo">
                    <path d="M73.6612352,84.7271627 C70.7961193,86.1145892 67.7849331,87.3831212 64.6267058,88.4881125 C59.5520926,90.255031 54.1144871,91.6109141 48.3075806,92.3742656 C44.6791132,92.8551819 41.3190079,93.040075 38.3393651,93.0643392 L38.3252918,93.0293988 L32.4907241,79.7462093 L31.9991316,78.631027 L29.2664983,72.4130851 L0.414432405,6.67216761 C-0.990464332,3.48336745 1.34860381,0 4.83730939,0 L33.2438847,0 C35.1573589,0 36.8966162,0.984155642 37.6667616,2.74428016 L45.8403975,21.3675331 L69.9667692,76.2968117 L69.9774455,76.3273846 L73.6612352,84.7271627 Z" id="Path"></path>
                    <path d="M88.5371262,118.595122 C81.2733976,122.303662 73.0478364,124.39475 64.3306826,124.39475 C61.9814235,124.39475 59.6671049,124.2414 57.3945206,123.948774 C57.7293665,119.957799 58.6630526,115.635862 60.6148642,111.313924 C62.9607263,106.134489 65.9408544,102.774384 67.7912417,100.75997 C70.6490783,97.6507569 73.6607499,94.6570408 76.7524933,91.7744548 L88.5371262,118.595122 Z" id="Path"></path>
                    <path d="M118.407803,54.6439318 L116.358449,59.3177005 L90.9213258,117.305238 C90.140504,117.755096 89.3460944,118.183602 88.5371262,118.594637 C81.2733976,122.303176 73.0478364,124.394264 64.3306826,124.394264 C61.9814235,124.394264 59.6671049,124.240915 57.3945206,123.948289 C57.7293665,119.957314 58.6630526,115.635376 60.6148642,111.313438 C62.9607263,106.134004 65.9408544,102.773898 67.7912417,100.759485 C70.6490783,97.6502716 73.6607499,94.6565555 76.7524933,91.7739695 C90.3739256,79.013916 105.54584,68.1702484 115.887239,57.3862708 C116.762691,56.4705402 117.606114,55.557236 118.407803,54.6439318 Z" id="Path"></path>
                    <path d="M126.783317,21.4092675 C123.520753,33.0997554 118.867852,41.7737188 115.281119,47.4864803 C114.97442,47.9780728 114.361021,48.937479 113.440923,50.2516277 C108.557997,57.2537883 95.086517,74.3750877 73.6612352,84.7266774 C70.7961193,86.114104 67.7849331,87.3826359 64.6267058,88.4876273 L69.9662839,76.3094291 L69.9769602,76.2851649 L92.2247982,25.6098845 L92.8415939,24.2006202 C93.6151364,22.4404957 95.3509967,21.352004 97.2751472,21.352004 L125.671046,21.352004 C126.0617,21.3524893 126.434883,21.3185194 126.783317,21.4092675 Z" id="Path"></path>
                </g>
            </g>
        </g>
    </g>
</svg>